<?xml version="1.0" encoding="UTF-8" standalone="no"?>
<svg
   width="108"
   height="108"
   viewBox="0 0 28.575001 28.575001"
   version="1.1"
   id="svg8">
  <g>
    <path
       style="fill:#000000;stroke-width:0.0295356"
       d="M 7.5279888,14.297111 V 4.615906 h 6.7411512 6.741152 v 9.681205 9.681205 H 14.26914 7.5279888 Z m 2.9706762,9.284183 V 23.398053 H 9.2846871 8.0707088 v 0.183241 0.183239 h 1.2139783 1.2139779 z m 0,-0.778772 V 22.604011 H 9.2846871 8.0707088 v 0.198511 0.198511 h 1.2139783 1.2139779 z m 5.08277,0.08931 c 0.195345,-0.06203 0.401078,-0.264089 0.488522,-0.47981 0.127699,-0.315034 0.100718,-0.739863 -0.07273,-1.145125 l -0.06905,-0.161317 -0.336791,0.0085 -0.33679,0.0084 -0.0085,0.107454 c -0.0061,0.07588 0.02071,0.167303 0.09082,0.311112 0.29078,0.596453 0.03383,0.885698 -0.464505,0.522898 -0.08832,-0.06427 -0.343183,-0.312696 -0.566391,-0.552055 L 13.900203,21.07669 h -0.329697 -0.329697 v 0.885662 0.885661 h 0.342771 0.34277 v -0.351208 c 0,-0.193167 0.0079,-0.351212 0.01778,-0.351212 0.0098,0 0.09993,0.08217 0.200338,0.182584 0.203824,0.203856 0.434705,0.39283 0.57397,0.46979 0.248214,0.137171 0.604099,0.175751 0.862976,0.09356 z M 12.098261,22.039017 V 21.840509 H 10.084485 8.0707088 v 0.198513 0.198508 h 2.0137762 2.013776 z m -1.599596,-0.77877 V 21.077009 H 9.2846871 8.0707088 v 0.183238 0.183242 h 1.2139783 1.2139779 z m 0,-0.77877 V 20.282966 H 9.2846871 8.0707088 v 0.198511 0.19851 h 1.2139783 1.2139779 z m 0,-0.763503 v -0.19851 H 9.2846871 8.0707088 v 0.19851 0.198511 h 1.2139783 1.2139779 z m 0,-0.778772 V 18.755961 H 9.2846871 8.0707088 v 0.183241 0.18324 h 1.2139783 1.2139779 z m 0.542721,-0.778771 V 17.96192 H 9.5560473 8.0707088 v 0.198511 0.198509 h 1.4853385 1.4853387 z m -0.542721,-0.763504 v -0.19851 H 9.2846871 8.0707088 v 0.19851 0.198512 h 1.2139783 1.2139779 z m 0,-0.778771 v -0.18324 H 9.2846871 8.0707088 v 0.18324 0.183242 h 1.2139783 1.2139779 z m 0,-0.778771 v -0.19851 H 9.2846871 8.0707088 v 0.19851 0.19851 h 1.2139783 1.2139779 z m 0,-0.763502 v -0.19851 H 9.2846871 8.0707088 v 0.19851 0.19851 h 1.2139783 1.2139779 z m 3.39914,-0.243962 V 14.69485 l 1.106863,-0.0079 1.106863,-0.0079 v -0.305425 -0.3054 l -0.120912,-0.0093 c -0.16519,-0.01284 -0.207576,-0.08423 -0.207576,-0.349677 v -0.207986 l -0.321348,0.0084 -0.321347,0.0084 -0.0084,0.236684 -0.0084,0.236686 h -0.612885 -0.612928 v -0.244353 -0.244321 h -0.328489 -0.328488 v 0.732962 0.732962 h 0.328488 0.328489 z m -1.799544,-0.53481 V 14.11387 H 10.084485 8.0707088 v 0.183241 0.183239 h 2.0137762 2.013776 z m -1.599596,-0.778773 v -0.19851 H 9.2846871 8.0707088 v 0.19851 0.198512 h 1.2139783 1.2139779 z m 0,-0.763502 V 12.556325 H 9.2846871 8.0707088 v 0.198511 0.19851 h 1.2139783 1.2139779 z m 0,-0.794041 v -0.19851 H 9.2846871 8.0707088 v 0.19851 0.198511 h 1.2139783 1.2139779 z m 0,-0.763502 V 10.998782 H 9.2846871 8.0707088 v 0.198511 0.19851 H 9.2846871 10.498665 Z M 11.041386,10.43379 V 10.235281 H 9.5560473 8.0707088 v 0.198509 0.198512 H 9.5560473 11.041386 Z M 10.498665,9.6397489 V 9.4412382 H 9.2846871 8.0707088 v 0.1985107 0.1985104 h 1.2139783 1.2139779 z m 0,-0.7635019 V 8.6777365 H 9.2846871 8.0707088 V 8.876247 9.0747575 h 1.2139783 1.2139779 z m 0,-0.7787722 V 7.9142343 H 9.2846871 8.0707088 v 0.1832405 0.1832407 h 1.2139783 1.2139779 z m 4.834751,-0.4867594 c 0.383402,-0.1048403 0.595376,-0.2507506 0.72352,-0.4980255 0.07496,-0.1446303 0.08304,-0.1875953 0.08195,-0.4353285 -0.0012,-0.2364947 -0.01182,-0.2966859 -0.07715,-0.4312182 C 15.944238,6.0042 15.788376,5.8879439 15.397432,5.7506327 c -0.217664,-0.07645 -1.218537,-0.072609 -1.455554,0.00558 -0.261155,0.086157 -0.425836,0.1873268 -0.549578,0.337629 -0.136463,0.1657569 -0.184202,0.3223987 -0.183376,0.6017146 0.0014,0.4552854 0.237106,0.7485132 0.718671,0.8938515 0.216672,0.06539 0.270109,0.070742 0.758303,0.075924 0.343418,0.00365 0.475038,-0.00745 0.647523,-0.054624 z M 14.158319,6.9362191 C 13.925397,6.8841349 13.82313,6.7487736 13.892941,6.584958 c 0.06646,-0.155956 0.172962,-0.1824574 0.733251,-0.1824574 0.282787,0 0.563075,0.011073 0.622867,0.024608 0.139349,0.031547 0.219776,0.1182712 0.219776,0.2369901 0,0.131973 -0.04142,0.1994498 -0.149356,0.2433399 -0.115183,0.046833 -0.984113,0.068371 -1.16116,0.02878 z M 10.498665,7.3187032 V 7.1201922 H 9.2846871 8.0707088 v 0.198511 0.1985106 H 9.2846871 10.498665 Z M 12.098261,6.5552009 V 6.3566904 H 10.084485 8.0707088 v 0.1985105 0.1985106 h 2.0137762 2.013776 z"
       id="path24" />
  </g>
</svg>
