<?xml version="1.0" encoding="UTF-8"?>
<svg width="210mm" height="297mm" version="1.1" viewBox="0 0 210 297" xmlns="http://www.w3.org/2000/svg" xmlns:cc="http://creativecommons.org/ns#" xmlns:dc="http://purl.org/dc/elements/1.1/" xmlns:rdf="http://www.w3.org/1999/02/22-rdf-syntax-ns#">
<metadata>
<rdf:RDF>
<cc:Work rdf:about="">
<dc:format>image/svg+xml</dc:format>
<dc:type rdf:resource="http://purl.org/dc/dcmitype/StillImage"/>
<dc:title/>
</cc:Work>
</rdf:RDF>
</metadata>
<rect
   style="fill:#000;fill-rule:evenodd;"
   id="rect69"
   width="10"
   height="15"
   x="0.6"
   y="0.5" />
<g font-family="sans-serif" font-size="2.5px" stroke="#fff" stroke-width=".3px">
<path d="m1 2h3"/>
<path d="m1 2.6h1.8"/>
<path d="m1 3.2h1.8"/>
<path d="m1 3.8h1.8"/>
<path d="m1 4.4h1.8"/>
<path d="m1 5h2.2"/>
<path d="m1 5.6h1.8"/>
<path d="m1 6.2h1.8"/>
<path d="m1 6.8h1.8"/>
<path d="m1 7.4h1.8"/>
<path d="m1 8h3"/>
<path d="m1 8.6h1.8"/>
<path d="m1 9.2h1.8"/>
<path d="m1 9.8h1.8"/>
<path d="m1 10.4h1.8"/>
<path d="m1 11h2.2"/>
<path d="m1 11.6h1.8"/>
<path d="m1 12.2h1.8"/>
<path d="m1 12.8h1.8"/>
<path d="m1 13.4h1.8"/>
<path d="m1 14h3"/>
<g transform="rotate(90)" aria-label="0">
<path d="m2.7246-5.9094q0 0.4895-0.15381 0.71899-0.15259 0.22827-0.47485 0.22827-0.32715 0-0.47852-0.23193-0.15015-0.23193-0.15015-0.71289 0-0.48462 0.15259-0.71533 0.15259-0.23193 0.47607-0.23193 0.32715 0 0.47729 0.2356 0.15137 0.23438 0.15137 0.70923zm-0.32104 0.5542q0.042725-0.098877 0.057373-0.23193 0.015869-0.13428 0.015869-0.32227 0-0.18555-0.015869-0.32227-0.014648-0.13672-0.058594-0.23193-0.042725-0.093994-0.11719-0.1416-0.073242-0.047607-0.18921-0.047607-0.11475 0-0.19043 0.047607-0.074463 0.047607-0.11841 0.14404-0.041504 0.090332-0.057373 0.2356-0.014649 0.14526-0.014649 0.3186 0 0.19043 0.013428 0.3186t0.057373 0.22949q0.040283 0.095215 0.11353 0.14526 0.074463 0.050049 0.19653 0.050049 0.11475 0 0.19043-0.047607 0.075684-0.047608 0.11719-0.14404z"/>
</g>
<g transform="rotate(90)" aria-label="1">
<path d="m8.5232-5h-0.98389v-0.18555h0.37842v-1.2183h-0.37842v-0.16602q0.076904 0 0.16479-0.012207 0.087891-0.013428 0.13306-0.037842 0.056152-0.030518 0.087891-0.076904 0.032959-0.047607 0.037842-0.12695h0.18921v1.6382h0.37109z"/>
</g>
<g transform="rotate(90)" aria-label="2">
<path d="m14.627-5h-1.2305v-0.25513q0.12817-0.10986 0.25635-0.21973 0.12939-0.10986 0.24048-0.21851 0.23438-0.22705 0.32104-0.36011 0.08667-0.13428 0.08667-0.28931 0-0.1416-0.09399-0.22095-0.09277-0.080566-0.26001-0.080566-0.11108 0-0.24048 0.039063-0.1294 0.039063-0.25269 0.11963h-0.01221v-0.25635q0.08667-0.042725 0.23071-0.078125 0.14526-0.0354 0.28076-0.0354 0.27954 0 0.43823 0.1355 0.15869 0.13428 0.15869 0.36499 0 0.10376-0.02685 0.19409-0.02563 0.089111-0.0769 0.16968-0.04761 0.075684-0.1123 0.14893-0.06348 0.073242-0.15503 0.16235-0.13062 0.12817-0.26978 0.24902-0.13916 0.11963-0.26001 0.22217h0.97778z"/>
</g>
</g>
</svg>
