<?xml version="1.0" encoding="UTF-8" standalone="no"?>
<svg
   xmlns:dc="http://purl.org/dc/elements/1.1/"
   xmlns:cc="http://creativecommons.org/ns#"
   xmlns:rdf="http://www.w3.org/1999/02/22-rdf-syntax-ns#"
   xmlns:svg="http://www.w3.org/2000/svg"
   xmlns="http://www.w3.org/2000/svg"
   xmlns:sodipodi="http://sodipodi.sourceforge.net/DTD/sodipodi-0.dtd"
   xmlns:inkscape="http://www.inkscape.org/namespaces/inkscape"
   width="100"
   height="100"
   viewBox="0 0 26.458333 26.458334"
   version="1.1"
   id="svg8"
   inkscape:version="1.0.2-2 (e86c870879, 2021-01-15)"
   sodipodi:docname="lineal_meas_vector.svg">
  <defs
     id="defs2" />
  <sodipodi:namedview
     id="base"
     pagecolor="#ffffff"
     bordercolor="#666666"
     borderopacity="1.0"
     inkscape:pageopacity="0.0"
     inkscape:pageshadow="2"
     inkscape:zoom="3.959798"
     inkscape:cx="31.484964"
     inkscape:cy="24.037621"
     inkscape:document-units="mm"
     inkscape:current-layer="layer1"
     inkscape:document-rotation="0"
     showgrid="false"
     units="px"
     inkscape:window-width="1481"
     inkscape:window-height="997"
     inkscape:window-x="38"
     inkscape:window-y="38"
     inkscape:window-maximized="0" />
  <metadata
     id="metadata5">
    <rdf:RDF>
      <cc:Work
         rdf:about="">
        <dc:format>image/svg+xml</dc:format>
        <dc:type
           rdf:resource="http://purl.org/dc/dcmitype/StillImage" />
        <dc:title></dc:title>
      </cc:Work>
    </rdf:RDF>
  </metadata>
  <g
     inkscape:label="Ebene 1"
     inkscape:groupmode="layer"
     id="layer1">
    <path
       style="fill:#000000;stroke-width:0.999999"
       d="M 3.5378146,23.776824 C 3.1195391,23.63621 2.7914817,23.297159 2.6810822,22.891383 2.6481455,22.770322 2.6410053,20.628522 2.6486068,13.149624 l 0.00974,-9.5865814 0.098284,-0.1896625 C 2.9308599,3.0371645 3.2042569,2.8044567 3.555055,2.6937841 c 0.2026536,-0.063934 19.145567,-0.063934 19.34822,0 0.350799,0.1106726 0.624196,0.3433804 0.798425,0.679596 l 0.09828,0.1896625 0.0097,9.5865814 c 0.0076,7.471317 4.42e-4,9.620543 -0.03241,9.740502 -0.09387,0.342742 -0.342816,0.639876 -0.684354,0.816815 l -0.189688,0.09827 -9.622376,0.0061 c -7.3010396,0.0046 -9.651498,-0.0037 -9.7430878,-0.03449 z M 21.26506,13.235834 V 5.2010377 H 13.229169 5.193277 v 8.0347963 8.034796 h 8.035892 8.035891 z m -8.028149,7.698576 c -0.08649,-0.07578 -2.570573,-6.82959 -2.55411,-6.944195 0.0063,-0.0438 0.05179,-0.102202 0.1011,-0.129784 0.08561,-0.04788 0.103671,-0.04126 0.399939,0.146524 0.306523,0.194292 0.665311,0.362984 0.961727,0.45218 l 0.152404,0.04586 V 13.234317 11.96364 l -0.181066,0.05331 c -0.258379,0.07607 -0.640592,0.257597 -0.977962,0.46446 -0.256843,0.157487 -0.30109,0.173985 -0.375592,0.140044 -0.04645,-0.02116 -0.09328,-0.07392 -0.104069,-0.117235 -0.02463,-0.0989 2.476267,-6.9206558 2.560454,-6.9842035 0.08449,-0.063771 0.161356,-0.052673 0.23877,0.034486 0.05745,0.06468 2.477816,6.5830235 2.547577,6.8609325 0.01665,0.06632 0.0035,0.109339 -0.04931,0.162216 -0.09896,0.09895 -0.132898,0.09265 -0.385641,-0.07158 -0.268862,-0.174698 -0.776824,-0.417865 -1.022766,-0.48961 l -0.181067,-0.05282 v 1.274052 c 0,0.70073 0.005,1.274054 0.01121,1.274054 0.0062,0 0.120784,-0.03727 0.254716,-0.08281 0.306697,-0.1043 0.679776,-0.287406 0.96753,-0.474859 0.211913,-0.138048 0.227401,-0.142708 0.313841,-0.09442 0.05412,0.03024 0.09512,0.08644 0.101292,0.138854 0.01492,0.126723 -2.461761,6.858302 -2.551851,6.935902 -0.03854,0.03319 -0.0899,0.06034 -0.114151,0.06034 -0.02425,0 -0.07509,-0.02716 -0.112969,-0.06034 z"
       id="path847" />
  </g>
</svg>
