<?xml version="1.0" encoding="UTF-8" standalone="no"?>
<svg
   xmlns:dc="http://purl.org/dc/elements/1.1/"
   xmlns:cc="http://creativecommons.org/ns#"
   xmlns:rdf="http://www.w3.org/1999/02/22-rdf-syntax-ns#"
   xmlns:svg="http://www.w3.org/2000/svg"
   xmlns="http://www.w3.org/2000/svg"
   xmlns:sodipodi="http://sodipodi.sourceforge.net/DTD/sodipodi-0.dtd"
   xmlns:inkscape="http://www.inkscape.org/namespaces/inkscape"
   width="108"
   height="108"
   viewBox="0 0 3086.1001 3086.1"
   version="1.1"
   id="svg8"
   inkscape:version="1.0.2-2 (e86c870879, 2021-01-15)"
   sodipodi:docname="measure_final.svg">
  <defs
     id="defs2" />
  <sodipodi:namedview
     id="base"
     pagecolor="#ffffff"
     bordercolor="#666666"
     borderopacity="1.0"
     inkscape:pageopacity="0.0"
     inkscape:pageshadow="2"
     inkscape:zoom="5.6"
     inkscape:cx="20.661719"
     inkscape:cy="99.68625"
     inkscape:document-units="mm"
     inkscape:current-layer="layer1"
     inkscape:document-rotation="0"
     showgrid="false"
     units="px"
     inkscape:window-width="2560"
     inkscape:window-height="1494"
     inkscape:window-x="-11"
     inkscape:window-y="-11"
     inkscape:window-maximized="1" />
  <metadata
     id="metadata5">
    <rdf:RDF>
      <cc:Work
         rdf:about="">
        <dc:format>image/svg+xml</dc:format>
        <dc:type
           rdf:resource="http://purl.org/dc/dcmitype/StillImage" />
        <dc:title></dc:title>
      </cc:Work>
    </rdf:RDF>
  </metadata>
  <g
     inkscape:label="Ebene 1"
     inkscape:groupmode="layer"
     id="layer1">
    <path
       style="fill:#000000;stroke-width:1"
       d="m 511.99009,2682.4545 c -55.11871,-9.1818 -98.87918,-54.8402 -108.42299,-113.126 -4.87795,-29.7912 -4.59086,-2023.97253 0.29579,-2054.09476 9.51751,-58.66759 53.36789,-101.89181 113.33307,-111.71471 28.23675,-4.62536 2023.47134,-4.62536 2051.70814,0 59.9652,9.8229 103.8157,53.04712 113.3332,111.71471 4.8865,30.12223 5.1736,2024.30356 0.2955,2054.09476 -9.8209,59.9784 -53.0356,103.838 -111.69,113.3576 -28.5505,4.6339 -2030.99737,4.4081 -2058.85281,-0.2316 z M 2417.2737,1543.2504 V 668.83596 H 1543.05 668.82638 v 874.41444 874.4144 H 1543.05 2417.2737 Z M 886.18807,2218.1745 c -1.31384,-1.3137 -2.38862,-4.6598 -2.38862,-7.4356 0,-3.6934 146.23345,-344.8943 176.55765,-411.9553 4.3309,-9.577 12.681,-13.2646 18.7085,-8.2603 2.456,2.038 7.2055,13.4751 10.5548,25.4136 3.3493,11.9394 8.794,28.0497 12.0994,35.8011 l 6.0098,14.0932 155.418,-162.186 155.4181,-162.186 -151.8192,-149.795 -151.8193,-149.794 -6.0127,13.6149 c -3.3068,7.4882 -7.9808,23.0062 -10.3863,34.4835 -5.8907,28.1042 -15.1142,37.4363 -25.1029,25.3973 -6.6978,-8.0719 -189.82157,-402.88826 -190.69593,-411.14195 -2.00461,-18.92531 5.76714,-16.01556 218.83643,81.92737 211.1857,97.07608 217.9959,100.80678 204.1181,111.81708 -2.4632,1.9539 -13.3462,5.6109 -24.1844,8.1264 -10.8384,2.5156 -27.5587,7.9896 -37.1565,12.1653 l -17.4506,7.5915 151.4487,149.8821 151.4486,149.882 15.0443,-15.5438 c 79.4708,-82.1082 266.9323,-278.7605 266.9323,-280.0188 0,-1.9433 -42.8401,-15.2529 -62.3411,-19.3683 -16.9019,-3.5661 -24.275,-12.7614 -16.4216,-20.4792 5.7386,-5.6396 406.1323,-202.76555 411.8485,-202.76555 1.8992,0 4.9951,2.882 6.8797,6.40412 2.6582,4.9679 -16.595,52.55051 -85.8628,212.20383 -49.1093,113.1901 -91.7382,208.2491 -94.7313,211.2431 -8.9601,8.9617 -16.218,0.577 -24.7363,-28.576 -4.3041,-14.7296 -10.1974,-31.2063 -13.0961,-36.6134 l -5.2706,-9.8315 -139.6448,145.7121 c -76.8047,80.141 -140.1148,147.5952 -140.6892,149.8973 -0.9965,3.9948 302.8933,305.3521 304.972,302.4299 3.745,-5.2636 13.6889,-33.0502 17.1754,-47.9941 5.8569,-25.1046 9.5292,-31.0848 18.2874,-29.7825 6.1164,0.909 25.0735,38.8763 103.4433,207.1737 52.775,113.3336 96.0526,208.0205 96.1724,210.4145 0.1197,2.394 -2.7587,5.9467 -6.3969,7.8948 -5.2797,2.8256 -48.1251,-15.5629 -212.2859,-91.1101 -113.1191,-52.0578 -207.1368,-96.9163 -208.9285,-99.6863 -5.5039,-8.5101 0.2351,-15.7343 14.6157,-18.3991 16.4684,-3.0513 55.6657,-15.8366 59.322,-19.3482 1.4331,-1.3769 -65.5744,-70.6836 -148.9052,-154.0156 l -151.5109,-151.5125 -154.744,161.2455 c -85.1094,88.6855 -154.7441,161.899 -154.7441,162.697 0,1.463 34.6642,12.9249 64.4919,21.325 13.4478,3.7872 16.1229,5.987 16.1229,13.2608 0,7.96 -17.6454,17.4002 -202.4329,108.296 -111.33801,54.7665 -204.98566,99.625 -208.10572,99.6853 -3.12024,0.057 -6.74787,-0.9654 -8.06151,-2.2792 z"
       id="path847" />
  </g>
</svg>
