<?xml version="1.0" encoding="UTF-8" standalone="no"?>
<svg
   xmlns:dc="http://purl.org/dc/elements/1.1/"
   xmlns:cc="http://creativecommons.org/ns#"
   xmlns:rdf="http://www.w3.org/1999/02/22-rdf-syntax-ns#"
   xmlns:svg="http://www.w3.org/2000/svg"
   xmlns="http://www.w3.org/2000/svg"
   xmlns:sodipodi="http://sodipodi.sourceforge.net/DTD/sodipodi-0.dtd"
   xmlns:inkscape="http://www.inkscape.org/namespaces/inkscape"
   width="100"
   height="100"
   viewBox="0 0 26.458333 26.458333"
   version="1.1"
   id="svg8"
   inkscape:version="1.0.2-2 (e86c870879, 2021-01-15)"
   sodipodi:docname="square_meas.svg">
  <defs
     id="defs2" />
  <sodipodi:namedview
     id="base"
     pagecolor="#ffffff"
     bordercolor="#666666"
     borderopacity="1.0"
     inkscape:pageopacity="0.0"
     inkscape:pageshadow="2"
     inkscape:zoom="1.979899"
     inkscape:cx="44.577536"
     inkscape:cy="65.231293"
     inkscape:document-units="mm"
     inkscape:current-layer="layer1"
     inkscape:document-rotation="0"
     showgrid="false"
     units="px"
     inkscape:window-width="1481"
     inkscape:window-height="997"
     inkscape:window-x="76"
     inkscape:window-y="76"
     inkscape:window-maximized="0" />
  <metadata
     id="metadata5">
    <rdf:RDF>
      <cc:Work
         rdf:about="">
        <dc:format>image/svg+xml</dc:format>
        <dc:type
           rdf:resource="http://purl.org/dc/dcmitype/StillImage" />
        <dc:title></dc:title>
      </cc:Work>
    </rdf:RDF>
  </metadata>
  <g
     inkscape:label="Ebene 1"
     inkscape:groupmode="layer"
     id="layer1">
    <path
       style="fill:#000000;stroke-width:1"
       d="M 3.4667005,23.751899 C 3.2403171,23.674718 2.9710151,23.465968 2.8455238,23.270395 2.6298139,22.934219 2.6461214,23.755338 2.6461214,13.230077 2.6461214,2.699442 2.6296013,3.5262661 2.8467639,3.1878269 2.9038672,3.0988345 3.0356458,2.9634016 3.1396066,2.8868658 3.4975919,2.6233154 2.541424,2.6460864 13.233708,2.6464797 c 10.524301,3.869e-4 9.698232,-0.016157 10.036631,0.2010058 0.08899,0.057106 0.224411,0.1888942 0.300943,0.292861 0.263517,0.3579873 0.240722,-0.5974921 0.240722,10.0897305 0,10.687223 0.0228,9.731744 -0.240722,10.089731 -0.07653,0.103967 -0.211956,0.235755 -0.300943,0.292861 -0.338518,0.21724 0.490967,0.20085 -10.05786,0.198729 -9.0809047,-0.0019 -9.585652,-0.0049 -9.7457785,-0.0595 z M 21.377198,13.230077 V 5.0810858 H 13.228711 5.0802252 v 8.1489912 8.148992 h 8.1484858 8.148487 z m -0.551889,7.799601 c -0.04909,-0.015 -0.459167,-0.198563 -0.908996,-0.406889 -0.485959,-0.225058 -4.98762,-2.305319 -5.148539,-2.379188 -0.201293,-0.0924 -0.24834,-0.144991 -0.234729,-0.262369 0.01307,-0.112717 0.07426,-0.142142 0.513655,-0.247001 0.32702,-0.07804 0.908995,-0.315499 0.908995,-0.370889 0,-0.01462 -0.612556,-0.639057 -1.361236,-1.387623 l -1.361234,-1.36103 -0.351246,0.328253 c -0.193185,0.180538 -0.817028,0.795104 -1.386318,1.365701 l -1.035071,1.037449 0.08239,0.05399 c 0.211369,0.138502 0.978414,0.407721 1.16166,0.407721 0.09001,0 0.225513,0.127765 0.225513,0.212637 0,0.04556 -0.03041,0.09738 -0.07305,0.124457 -0.04017,0.02552 -0.964184,0.451393 -2.0533541,0.94639 -1.0891696,0.494995 -2.0752664,0.943563 -2.1913255,0.996815 -1.377733,0.632156 -1.9926057,0.901379 -2.0586383,0.901379 -0.109567,0 -0.1906957,-0.08834 -0.16718,-0.182039 0.016964,-0.06759 0.2820031,-0.638588 1.957466,-4.217118 0.2591702,-0.553547 0.5726636,-1.225552 0.696652,-1.493343 0.1239888,-0.267793 0.2486097,-0.512506 0.2769359,-0.543808 0.055072,-0.06086 0.1597097,-0.07355 0.2314751,-0.02807 0.024171,0.01532 0.092411,0.218671 0.151643,0.451895 0.059232,0.233224 0.1670406,0.550693 0.2395743,0.705486 l 0.1318793,0.281442 1.3802623,-1.356745 c 0.759144,-0.746209 1.380261,-1.365042 1.380261,-1.375183 0,-0.0462 -2.7232309,-2.73522 -2.752008,-2.717434 -0.067661,0.04182 -0.3106719,0.660727 -0.3955046,1.007272 -0.077308,0.315804 -0.099071,0.366157 -0.1741617,0.402959 -0.058472,0.02865 -0.1044559,0.03208 -0.1443228,0.01074 C 8.331859,11.916854 7.8708275,10.956607 7.2242616,9.5559171 6.6280687,8.2643509 6.0859473,7.0907373 6.0195478,6.9478864 5.5843915,6.0116994 5.4404168,5.6893501 5.4354719,5.6401784 c -0.011984,-0.1191588 0.0046,-0.1603259 0.078064,-0.1938009 0.099042,-0.045129 -0.088897,-0.1269918 3.202667,1.3950149 1.5266241,0.7059049 2.8487241,1.3169011 2.9380001,1.3577688 0.08928,0.040868 0.187886,0.096076 0.219133,0.1226848 0.06846,0.058301 0.07462,0.2103832 0.01067,0.263465 -0.02539,0.021067 -0.197036,0.072717 -0.381453,0.1147784 -0.184417,0.042062 -0.459478,0.1293544 -0.611248,0.1939847 -0.484419,0.2062866 -0.596634,0.021633 0.958436,1.5771309 0.74935,0.749557 1.374508,1.36283 1.389237,1.36283 0.01473,0 0.639685,-0.609074 1.388788,-1.353498 1.141703,-1.1345751 1.354931,-1.3605687 1.318287,-1.3972161 -0.111434,-0.1114399 -0.998042,-0.4309642 -1.195829,-0.4309642 -0.03135,0 -0.0977,-0.035004 -0.14743,-0.077786 -0.07872,-0.067715 -0.08631,-0.089366 -0.05863,-0.1672326 0.02703,-0.076017 0.114669,-0.1271573 0.583693,-0.3406024 1.16143,-0.5285479 3.551581,-1.6176456 4.600967,-2.0964798 0.602165,-0.2747672 1.130692,-0.4995772 1.174504,-0.4995772 0.109162,0 0.191016,0.088283 0.167762,0.1809401 -0.0175,0.069747 -0.353492,0.7943438 -1.82045,3.9260217 -0.334574,0.7142545 -0.709806,1.5177475 -0.833848,1.7855395 -0.244252,0.527313 -0.292922,0.60098 -0.396547,0.600222 -0.128454,-9.75e-4 -0.161307,-0.06032 -0.264146,-0.47748 -0.05831,-0.236542 -0.161202,-0.542154 -0.23695,-0.703803 L 17.385268,10.496403 16.004965,11.8537 c -0.759165,0.746514 -1.380301,1.365307 -1.380301,1.375099 0,0.04578 2.723488,2.734423 2.752008,2.716796 0.06757,-0.04176 0.310637,-0.660562 0.39566,-1.007272 0.07245,-0.295437 0.102061,-0.367759 0.163243,-0.398703 0.04337,-0.02194 0.10343,-0.02719 0.143092,-0.01252 0.0522,0.0193 0.407504,0.759683 1.503208,3.132337 0.789172,1.708886 1.437296,3.131668 1.440275,3.161738 0.01163,0.117373 -0.0048,0.159121 -0.07511,0.190638 -0.04017,0.01802 -0.09496,0.02606 -0.121739,0.01788 z"
       id="path847" />
  </g>
</svg>
